# xmcd
#
# Track frame offsets: 
#        150
#        22807
#        43472
#        60907
#        84492
#        104190
#        125545
#        148585
#        168225
#        187860
#        205047
#        236535
#
# Disc length: 3439 seconds
#
# Revision: 7
# Processed by: cddbd v1.5.2PL0 Copyright (c) Steve Scherf et al.
# Submitted via: ExactAudioCopy v1.3
#
DISCID=9d0d6d0c
DTITLE=Mariah Carey - Butterfly
DYEAR=1997
DGENRE=R&B
TTITLE0=Honey
TTITLE1=Butterfly
TTITLE2=My All
TTITLE3=The Roof
TTITLE4=Fourth Of July
TTITLE5=Breakdown
TTITLE6=Babydoll
TTITLE7=Close My Eyes
TTITLE8=Whenever You Call
TTITLE9=Fly Away
TTITLE10=The Beautiful Ones
TTITLE11=Outside
EXTD=
EXTT0=
EXTT1=
EXTT2=
EXTT3=
EXTT4=
EXTT5=
EXTT6=
EXTT7=
EXTT8=
EXTT9=
EXTT10=
EXTT11=
PLAYORDER=
